<svg width="24" height="24" viewBox="0 0 24 24" fill="none" xmlns="http://www.w3.org/2000/svg">
<path d="M12.0901 16.665C11.8646 16.6689 11.6493 16.7602 11.4898 16.9197C11.3303 17.0792 11.239 17.2945 11.2352 17.52C11.2352 17.7468 11.3252 17.9642 11.4856 18.1246C11.6459 18.2849 11.8634 18.375 12.0901 18.375C12.203 18.3771 12.315 18.3564 12.4197 18.3141C12.5244 18.2719 12.6195 18.2089 12.6993 18.1291C12.7791 18.0493 12.842 17.9543 12.8842 17.8496C12.9265 17.745 12.9472 17.6329 12.9451 17.52C12.9451 17.4077 12.923 17.2966 12.88 17.1929C12.8371 17.0891 12.7741 16.9948 12.6947 16.9155C12.6153 16.8361 12.5211 16.7731 12.4173 16.7301C12.3136 16.6871 12.2024 16.665 12.0901 16.665Z" fill="white"/>
<path d="M11.9551 6.37501C11.1248 6.37639 10.3187 6.65438 9.664 7.16507C9.00934 7.67576 8.54345 8.39003 8.34005 9.19502C8.3124 9.30207 8.30985 9.41402 8.33245 9.52223C8.35505 9.63045 8.40225 9.73202 8.47042 9.81905C8.5386 9.90608 8.62592 9.97627 8.72558 10.0241C8.82524 10.072 8.93455 10.0962 9.0451 10.095C9.20671 10.0995 9.36499 10.0483 9.49334 9.94997C9.62169 9.85166 9.71228 9.71221 9.75006 9.55501C9.88839 9.01515 10.2235 8.54644 10.6895 8.24081C11.1555 7.93519 11.7189 7.81472 12.2691 7.90298C12.8194 7.99125 13.3168 8.2819 13.6639 8.71794C14.0109 9.15399 14.1826 9.70398 14.1451 10.26C14.155 10.6393 14.0447 11.0121 13.8301 11.325C13.5823 11.6285 13.2888 11.8917 12.9601 12.105C12.5077 12.4145 12.1077 12.7943 11.7751 13.23C11.5225 13.5952 11.3488 14.009 11.2651 14.445C11.2397 14.5503 11.2389 14.66 11.2628 14.7657C11.2867 14.8713 11.3345 14.97 11.4027 15.0541C11.4709 15.1383 11.5575 15.2056 11.6559 15.2508C11.7543 15.2961 11.8619 15.318 11.9701 15.315C12.1384 15.3124 12.3008 15.2533 12.4314 15.1472C12.562 15.0411 12.6531 14.8942 12.6901 14.73C12.7374 14.4996 12.8291 14.2805 12.9601 14.085C13.2119 13.7854 13.5048 13.5227 13.8301 13.305C14.2825 12.9955 14.6825 12.6157 15.0151 12.18C15.4256 11.5637 15.6353 10.8353 15.6151 10.095C15.6114 9.11991 15.2265 8.18487 14.5426 7.48976C13.8587 6.79465 12.93 6.39459 11.9551 6.37501Z" fill="white"/>
<path d="M12 0C9.6266 0 7.30658 0.703779 5.33319 2.02236C3.35979 3.34094 1.82172 5.2151 0.91347 7.40782C0.00521637 9.60054 -0.232447 12.0133 0.230577 14.3411C0.6936 16.6689 1.83644 18.8071 3.51467 20.4853C5.1929 22.1636 7.33119 23.3064 9.65897 23.7695C11.9867 24.2325 14.3995 23.9948 16.5922 23.0866C18.7849 22.1783 20.6591 20.6403 21.9777 18.6669C23.2963 16.6935 24 14.3734 24 12C24 8.81742 22.7357 5.76516 20.4853 3.51472C18.2348 1.26428 15.1826 0 12 0ZM12 22.5C9.92327 22.5 7.89322 21.8842 6.1665 20.7305C4.43978 19.5767 3.09403 17.9368 2.29931 16.0182C1.50458 14.0996 1.29659 11.9884 1.70174 9.95157C2.10689 7.91477 3.10695 6.04386 4.5754 4.5754C6.04386 3.10695 7.91477 2.10689 9.95157 1.70174C11.9884 1.29659 14.0996 1.50454 16.0182 2.29926C17.9369 3.09398 19.5767 4.43983 20.7305 6.16655C21.8842 7.89327 22.5 9.92332 22.5 12C22.5 14.7848 21.3938 17.4555 19.4246 19.4246C17.4555 21.3938 14.7848 22.5 12 22.5Z" fill="white"/>
</svg>
