<svg width="24" height="24" viewBox="0 0 24 24" fill="none" xmlns="http://www.w3.org/2000/svg">
<path d="M17.985 7.31998C17.989 7.41578 17.9739 7.51142 17.9404 7.60128C17.907 7.69114 17.8559 7.77339 17.7902 7.84325C17.7245 7.91311 17.6456 7.96916 17.558 8.00809C17.4704 8.04703 17.3758 8.06807 17.28 8.06998H16.32C17.0836 8.99942 17.5397 10.1431 17.6251 11.343C17.7105 12.5429 17.4212 13.7397 16.7969 14.768C16.1725 15.7962 15.2442 16.6051 14.1402 17.0828C13.0362 17.5606 11.811 17.6835 10.6341 17.4347C9.45716 17.1859 8.38664 16.5776 7.57046 15.6939C6.75428 14.8102 6.23278 13.6948 6.07806 12.5019C5.92334 11.3089 6.143 10.0974 6.70675 9.03472C7.27051 7.97207 8.15049 7.1108 9.225 6.56998C9.37741 6.48975 9.5536 6.46682 9.72149 6.50535C9.88937 6.54388 10.0378 6.64134 10.14 6.78001C10.2058 6.86677 10.2512 6.96735 10.2725 7.07417C10.2939 7.18098 10.2907 7.29124 10.2633 7.39666C10.2359 7.50208 10.1849 7.59991 10.1142 7.68276C10.0434 7.76562 9.95478 7.83133 9.85497 7.87498C9.05552 8.27932 8.4005 8.92063 7.97924 9.7113C7.55798 10.502 7.39109 11.4034 7.50143 12.2925C7.61176 13.1815 7.99392 14.0149 8.59566 14.6786C9.19741 15.3423 9.98939 15.804 10.8634 16.0006C11.7375 16.1973 12.6509 16.1193 13.4789 15.7773C14.3069 15.4353 15.0092 14.846 15.4897 14.0898C15.9702 13.3337 16.2055 12.4477 16.1635 11.5528C16.1215 10.6579 15.8042 9.79776 15.255 9.08997V10.17C15.257 10.2665 15.24 10.3625 15.2048 10.4524C15.1697 10.5424 15.1173 10.6245 15.0504 10.6942C14.9835 10.7638 14.9036 10.8196 14.8152 10.8584C14.7268 10.8971 14.6316 10.918 14.535 10.92C14.3468 10.9199 14.1652 10.8505 14.025 10.725C13.897 10.5837 13.8181 10.4048 13.8 10.215V7.18499C13.7999 7.06024 13.8485 6.94038 13.9353 6.85078C14.0221 6.76118 14.1403 6.70888 14.265 6.70498H17.295C17.463 6.71305 17.6231 6.77854 17.7487 6.89047C17.8743 7.00239 17.9577 7.15399 17.985 7.31998Z" fill="white"/>
<path d="M12 0C9.62665 0 7.30655 0.703823 5.33317 2.0224C3.35978 3.34098 1.82172 5.21509 0.913466 7.4078C0.00521635 9.60052 -0.232446 12.0133 0.230576 14.3411C0.693597 16.6689 1.83652 18.8071 3.51475 20.4853C5.19298 22.1635 7.33117 23.3064 9.65893 23.7694C11.9867 24.2324 14.3995 23.9948 16.5922 23.0866C18.7849 22.1783 20.659 20.6403 21.9776 18.6669C23.2962 16.6935 24 14.3734 24 12C24 8.8174 22.7356 5.76519 20.4852 3.51475C18.2348 1.26432 15.1826 0 12 0ZM12 22.5C9.92332 22.5 7.89319 21.8842 6.16648 20.7305C4.43976 19.5767 3.09402 17.9368 2.2993 16.0182C1.50458 14.0996 1.29659 11.9883 1.70173 9.95155C2.10688 7.91475 3.10694 6.04384 4.57539 4.57539C6.04383 3.10694 7.91474 2.10693 9.95154 1.70178C11.9883 1.29664 14.0996 1.50458 16.0182 2.2993C17.9368 3.09402 19.5766 4.43982 20.7304 6.16653C21.8841 7.89325 22.5 9.92329 22.5 12C22.5 14.7848 21.3937 17.4555 19.4246 19.4246C17.4554 21.3938 14.7848 22.5 12 22.5Z" fill="white"/>
</svg>
