<?xml version="1.0" encoding="utf-8"?>
<!-- Svg Vector Icons : http://www.onlinewebfonts.com/icon -->
<!DOCTYPE svg PUBLIC "-//W3C//DTD SVG 1.1//EN" "http://www.w3.org/Graphics/SVG/1.1/DTD/svg11.dtd">
<svg version="1.1" xmlns="http://www.w3.org/2000/svg" xmlns:xlink="http://www.w3.org/1999/xlink" x="0px" y="0px" viewBox="0 0 1000 1000" enable-background="new 0 0 1000 1000" xml:space="preserve">
<metadata> Svg Vector Icons : http://www.onlinewebfonts.com/icon </metadata>
<g><g><g id="Layer_1_17_"><g><g><g><path d="M889,437.6c-51,36.6-122.6,85.3-154.9,85.3c-6.4,0-8.4-1.9-9.9-3.7c-13.2-16.3-9.6-73.3,10.6-169.4c2-9.5-3-19.1-12-22.9c-8.9-3.8-19.3-0.7-24.7,7.4C628.4,438.2,596.5,460,582,460c-20.5,0-41.4-59-62.1-175.5c-1.6-9.3-9.5-16.1-18.8-16.6v-0.1c-0.2,0-0.4,0-0.6,0c-0.2,0-0.4,0-0.6,0v0.1c-9.3,0.5-17.1,7.3-18.8,16.6C460.4,400.9,439.6,460,419.1,460c-14.5,0-46.4-21.8-116.1-125.7c-5.4-8.1-15.8-11.2-24.7-7.4c-8.9,3.8-14,13.3-12,22.9c20.2,96.1,23.8,153.1,10.6,169.4c-1.5,1.8-3.5,3.7-9.9,3.7c-32.3,0-103.9-48.7-155-85.3c-8.1-5.8-19.1-4.9-26.1,2.2c-7,7-7.9,18.1-2.1,26.1c116.7,149.2,94.7,320.5,94.7,320.5c-0.4,2.4-0.7,4.8-0.7,7.4c0,42.1,58.9,58.7,110.2,68.6c56.6,10.8,131,16.9,210.2,17.1v0c0.8,0,1.5,0,2.3,0c0.8,0,1.5,0,2.3,0v0c79.1-0.2,153.6-6.3,210.1-17.1c51.3-9.8,110.3-26.5,110.3-68.6c0-2.6-0.2-5-0.6-7.4c0,0-22-171.3,94.7-320.5c5.8-8.1,4.9-19.1-2.1-26.1C908.2,432.8,897.1,431.8,889,437.6z M502.8,821.4h-0.2c-0.7,0-1.4,0-2.1,0c-0.7,0-1.4,0-2.1,0h-0.2c-125.8-0.4-208.9-15-245.6-27.5c36.7-12.6,119.8-27.2,245.6-27.6h0.3c0.7,0,1.3,0,2,0c0.7,0,1.3,0,2,0h0.3c125.8,0.4,208.9,15,245.6,27.6C711.7,806.4,628.6,821,502.8,821.4z"/></g></g><g><g><path d="M500.5,120.5c33.9,0,61.3,27.5,61.3,61.3c0,33.9-27.5,61.3-61.3,61.3c-33.9,0-61.3-27.5-61.3-61.3C439.2,148,466.7,120.5,500.5,120.5z"/></g></g><g><g><circle cx="241.7" cy="256" r="51.1"/></g></g><g><g><path d="M755.2,204.9c28.2,0,51.1,22.9,51.1,51.1c0,28.2-22.9,51.1-51.1,51.1c-28.2,0-51.1-22.9-51.1-51.1C704.1,227.7,726.9,204.9,755.2,204.9z"/></g></g><g><g><path d="M44.4,367.1c19,0,34.5,15.4,34.5,34.4c0,19-15.4,34.5-34.5,34.5c-19,0-34.4-15.4-34.4-34.5C10,382.6,25.4,367.1,44.4,367.1z"/></g></g><g><g><path d="M955.5,367.1c19,0,34.5,15.4,34.5,34.4c0,19-15.4,34.5-34.5,34.5c-19,0-34.5-15.4-34.5-34.5C921.1,382.6,936.5,367.1,955.5,367.1z"/></g></g></g></g></g><g></g><g></g><g></g><g></g><g></g><g></g><g></g><g></g><g></g><g></g><g></g><g></g><g></g><g></g><g></g></g>
</svg>