<svg width="18" height="10" viewBox="0 0 18 10" fill="none" xmlns="http://www.w3.org/2000/svg">
<path d="M2.13399 9.55855L8.23632 3.45621C8.3526 3.33994 8.51029 3.2746 8.67473 3.2746C8.83916 3.2746 8.99686 3.33994 9.11313 3.45621L15.2155 9.55855C15.4499 9.79297 15.7678 9.92468 16.0993 9.92468C16.4308 9.92468 16.7488 9.79297 16.9832 9.55855C17.2177 9.32413 17.3494 9.00616 17.3494 8.67464C17.3494 8.34312 17.2177 8.0252 16.9832 7.79078L9.55861 0.36616C9.32419 0.131739 9.00627 2.59735e-05 8.67475 2.59445e-05C8.34323 2.59155e-05 8.02526 0.131739 7.79084 0.36616L0.366223 7.79078C0.131802 8.0252 8.78763e-05 8.34316 8.78473e-05 8.67469C8.78183e-05 9.00621 0.131802 9.32413 0.366222 9.55855C0.600643 9.79297 0.918564 9.92468 1.25008 9.92468C1.5816 9.92468 1.89957 9.79297 2.13399 9.55855Z" fill="white"/>
</svg>
