<svg width="18" height="10" viewBox="0 0 18 10" fill="none" xmlns="http://www.w3.org/2000/svg">
<path d="M15.2154 0.366134L9.11304 6.46847C8.99677 6.58474 8.83907 6.65008 8.67464 6.65008C8.5102 6.65008 8.35251 6.58474 8.23624 6.46847L2.1339 0.366134C1.89948 0.131714 1.58156 0 1.25004 0C0.918518 0 0.600555 0.131714 0.366134 0.366134C0.131714 0.600555 0 0.918518 0 1.25004C0 1.58156 0.131714 1.89948 0.366134 2.1339L7.79076 9.55852C8.02518 9.79294 8.3431 9.92466 8.67462 9.92466C9.00614 9.92466 9.3241 9.79294 9.55852 9.55852L16.9831 2.1339C17.2176 1.89948 17.3493 1.58152 17.3493 1.25C17.3493 0.918475 17.2176 0.600555 16.9831 0.366134C16.7487 0.131714 16.4308 0 16.0993 0C15.7678 0 15.4498 0.131714 15.2154 0.366134Z" fill="white"/>
</svg>
