<svg width="16" height="16" viewBox="0 0 16 16" fill="none" xmlns="http://www.w3.org/2000/svg">
<path id="Close-Icon" d="M0.201878 0.201878C-0.0672776 0.471033 -0.0673074 0.907458 0.201878 1.17664L7.02523 8L0.201878 14.8234C-0.0672776 15.0925 -0.0673074 15.5289 0.201878 15.7981C0.471062 16.0673 0.907488 16.0673 1.17664 15.7981L8 8.97477L14.8234 15.7981C15.0925 16.0673 15.529 16.0673 15.7981 15.7981C16.0673 15.529 16.0673 15.0925 15.7981 14.8234L8.97477 8L15.7981 1.17664C16.0673 0.907488 16.0673 0.471062 15.7981 0.201878C15.5289 -0.0673074 15.0925 -0.0672776 14.8234 0.201878L8 7.02523L1.17664 0.201878C0.907458 -0.0673074 0.471033 -0.0672776 0.201878 0.201878Z" fill="white"/>
</svg>
