<svg width="24" height="24" viewBox="0 0 24 24" fill="none" xmlns="http://www.w3.org/2000/svg">
<path d="M23.3939 11.316H21.6243C21.4746 9.01473 20.4932 6.84372 18.8595 5.19994C17.2258 3.55616 15.0491 2.54948 12.7273 2.364V0.6C12.7273 0.44087 12.6635 0.288266 12.5498 0.175745C12.4361 0.0632228 12.282 0 12.1212 0C11.9605 0 11.8063 0.0632228 11.6926 0.175745C11.579 0.288266 11.5152 0.44087 11.5152 0.6V2.34001C9.13141 2.45036 6.87248 3.427 5.17061 5.08308C3.46873 6.73916 2.44344 8.95834 2.29093 11.316H0.606061C0.445324 11.316 0.291141 11.3792 0.177483 11.4917C0.0638245 11.6043 0 11.7569 0 11.916C0 12.0751 0.0638245 12.2277 0.177483 12.3402C0.291141 12.4528 0.445324 12.516 0.606061 12.516H2.29093C2.43967 14.8483 3.44262 17.0468 5.11179 18.6993C6.78096 20.3518 9.0017 21.3447 11.3576 21.492V23.4C11.3576 23.5591 11.4214 23.7117 11.5351 23.8243C11.6487 23.9368 11.8029 24 11.9636 24C12.1244 24 12.2786 23.9368 12.3922 23.8243C12.5059 23.7117 12.5697 23.5591 12.5697 23.4V21.492C14.9234 21.3419 17.1412 20.3478 18.8079 18.6955C20.4745 17.0433 21.4759 14.8464 21.6243 12.516H23.3939C23.5547 12.516 23.7089 12.4528 23.8225 12.3402C23.9362 12.2277 24 12.0751 24 11.916C24 11.7569 23.9362 11.6043 23.8225 11.4917C23.7089 11.3792 23.5547 11.316 23.3939 11.316ZM12.5697 20.292V18.6C12.5697 18.4409 12.5059 18.2883 12.3922 18.1757C12.2786 18.0632 12.1244 18 11.9636 18C11.8029 18 11.6487 18.0632 11.5351 18.1757C11.4214 18.2883 11.3576 18.4409 11.3576 18.6V20.292C9.3228 20.1472 7.40887 19.2814 5.96636 17.8533C4.52384 16.4252 3.64934 14.5304 3.50305 12.516H5.45455C5.61529 12.516 5.76947 12.4528 5.88313 12.3402C5.99679 12.2277 6.06061 12.0751 6.06061 11.916C6.06061 11.7569 5.99679 11.6043 5.88313 11.4917C5.76947 11.3792 5.61529 11.316 5.45455 11.316H3.50305C3.65359 9.27646 4.55042 7.36137 6.02547 5.9298C7.50052 4.49822 9.45245 3.64851 11.5152 3.54001V5.4C11.5152 5.55913 11.579 5.71173 11.6926 5.82426C11.8063 5.93678 11.9605 6 12.1212 6C12.282 6 12.4361 5.93678 12.5498 5.82426C12.6635 5.71173 12.7273 5.55913 12.7273 5.4V3.564C14.7279 3.74624 16.5983 4.62535 18.0055 6.0449C19.4128 7.46444 20.2656 9.3323 20.4122 11.316H18.5455C18.3847 11.316 18.2306 11.3792 18.1169 11.4917C18.0033 11.6043 17.9394 11.7569 17.9394 11.916C17.9394 12.0751 18.0033 12.2277 18.1169 12.3402C18.2306 12.4528 18.3847 12.516 18.5455 12.516H20.4122C20.2662 14.5285 19.3934 16.4218 17.9534 17.8496C16.5133 19.2774 14.6023 20.1444 12.5697 20.292Z" fill="white"/>
</svg>
