<svg width="24" height="24" viewBox="0 0 24 24" fill="none" xmlns="http://www.w3.org/2000/svg">
<path d="M12 3.40556C10.3002 3.40556 8.63852 3.90961 7.22517 4.85398C5.81182 5.79835 4.71025 7.1406 4.05976 8.71103C3.40927 10.2815 3.23905 12.0095 3.57067 13.6767C3.90229 15.3438 4.72086 16.8752 5.92281 18.0772C7.12477 19.2791 8.65615 20.0977 10.3233 20.4293C11.9905 20.7609 13.7185 20.5907 15.289 19.9402C16.8594 19.2897 18.2016 18.1882 19.146 16.7748C20.0904 15.3615 20.5945 13.6998 20.5945 12C20.5945 9.72062 19.689 7.53459 18.0772 5.92281C16.4654 4.31104 14.2794 3.40556 12 3.40556ZM12 19.5202C10.5127 19.5202 9.05874 19.0791 7.82206 18.2528C6.58538 17.4265 5.62148 16.252 5.0523 14.8778C4.48312 13.5037 4.33416 11.9917 4.62432 10.5329C4.91449 9.07414 5.63074 7.73416 6.68245 6.68245C7.73416 5.63074 9.07411 4.91452 10.5329 4.62435C11.9916 4.33419 13.5037 4.48312 14.8778 5.0523C16.252 5.62148 17.4264 6.58535 18.2527 7.82203C19.0791 9.05871 19.5202 10.5127 19.5202 12C19.5202 13.9945 18.7278 15.9072 17.3175 17.3175C15.9072 18.7278 13.9945 19.5202 12 19.5202Z" fill="white"/>
<path d="M12 0C9.62665 0 7.30654 0.703779 5.33315 2.02236C3.35976 3.34093 1.82169 5.21507 0.913437 7.40779C0.00518586 9.6005 -0.232436 12.0133 0.230587 14.3411C0.693609 16.6688 1.83652 18.8071 3.51475 20.4853C5.19298 22.1635 7.33112 23.3064 9.65889 23.7694C11.9867 24.2324 14.3995 23.9948 16.5922 23.0866C18.7849 22.1783 20.659 20.6402 21.9776 18.6669C23.2962 16.6935 24 14.3734 24 12C24 8.81742 22.7357 5.76514 20.4853 3.51471C18.2349 1.26427 15.1826 0 12 0ZM12 22.9257C9.83912 22.9257 7.72676 22.2849 5.93003 21.0844C4.13331 19.8838 2.73292 18.1775 1.90598 16.1811C1.07904 14.1847 0.862668 11.9879 1.28424 9.86851C1.70581 7.74914 2.7464 5.80236 4.27438 4.27437C5.80237 2.74639 7.74915 1.7058 9.86852 1.28423C11.9879 0.862659 14.1846 1.07903 16.1811 1.90597C18.1775 2.73291 19.8839 4.13327 21.0844 5.92999C22.2849 7.72671 22.9257 9.83911 22.9257 12C22.9257 14.8977 21.7746 17.6767 19.7257 19.7256C17.6767 21.7746 14.8977 22.9257 12 22.9257Z" fill="white"/>
</svg>
