<svg width="389" height="347" viewBox="0 0 389 347" fill="none" xmlns="http://www.w3.org/2000/svg">
<g id="on-cards">
<g id="7-hearts">
<g id="Rectangle 11" filter="url(#filter0_d_66_165)">
<rect x="9" y="51.3101" width="182.237" height="291.71" rx="10" transform="rotate(-10.852 9 51.3101)" fill="white"/>
</g>
<path id="7" d="M31.396 60.1173L31.6521 61.453L28.4731 74.9326L26.391 75.3317L29.5237 62.2479L23.2382 63.4529L23.7088 65.9082L21.8232 66.2697L21.0249 62.1055L31.396 60.1173Z" fill="#FF0000"/>
<path id="7_2" d="M220.503 294.686L220.247 293.35L223.426 279.871L225.508 279.472L222.375 292.556L228.661 291.351L228.19 288.895L230.076 288.534L230.874 292.698L220.503 294.686Z" fill="#FF0000"/>
<path id="Union" d="M35.7097 79.1734L35.75 79.165L30.4008 89.1858L22.2423 82.4791C21.4381 81.9609 20.8201 81.1561 20.553 80.1765L20.5455 80.1698L20.5509 80.1687C20.5248 80.072 20.502 79.9737 20.4829 79.8737C20.0676 77.7075 21.487 75.6148 23.6532 75.1995C25.4875 74.8479 27.269 75.8117 28.0241 77.4306C28.1269 75.6473 29.4258 74.0929 31.26 73.7413C33.4262 73.326 35.5189 74.7454 35.9342 76.9116C35.9533 77.0116 35.9686 77.1114 35.9801 77.2109L35.9854 77.2099L35.981 77.2193C36.0583 77.9027 35.9563 78.5712 35.7097 79.1734Z" fill="#FF0000"/>
<path id="Union_2" d="M88.5863 109.748L88.6906 109.726L74.8866 135.691L53.7969 118.294C51.7181 116.949 50.1203 114.863 49.4285 112.323L49.4092 112.305L49.423 112.303C49.3553 112.052 49.2964 111.797 49.2467 111.538C48.1703 105.923 51.8341 100.501 57.4301 99.428C62.1686 98.5196 66.7732 101.021 68.7266 105.218C68.9894 100.596 72.3425 96.5692 77.081 95.6609C82.6771 94.5881 88.0862 98.2706 89.1626 103.886C89.2123 104.145 89.2519 104.404 89.2817 104.662L89.2956 104.659L89.2841 104.683C89.4849 106.455 89.2224 108.187 88.5863 109.748Z" fill="#FF0000"/>
<path id="Union_3" d="M171.637 93.8271L171.741 93.8053L157.937 119.77L136.848 102.373C134.769 101.028 133.171 98.9416 132.479 96.4021L132.46 96.3845L132.474 96.3818C132.406 96.1312 132.347 95.8761 132.298 95.617C131.221 90.0016 134.885 84.5798 140.481 83.5071C145.219 82.5987 149.824 85.0999 151.777 89.2971C152.04 84.675 155.393 80.6483 160.132 79.74C165.728 78.6672 171.137 82.3497 172.213 87.9651C172.263 88.2242 172.303 88.483 172.332 88.7409L172.346 88.7383L172.335 88.7625C172.536 90.5341 172.273 92.2665 171.637 93.8271Z" fill="#FF0000"/>
<path id="Union_4" d="M138.085 141.642L138.19 141.62L124.386 167.585L103.296 150.188C101.217 148.843 99.6194 146.756 98.9277 144.217L98.9083 144.199L98.9222 144.197C98.8545 143.946 98.7956 143.691 98.7459 143.432C97.6694 137.816 101.333 132.395 106.929 131.322C111.668 130.413 116.272 132.915 118.226 137.112C118.489 132.49 121.842 128.463 126.58 127.555C132.176 126.482 137.585 130.164 138.662 135.78C138.711 136.039 138.751 136.298 138.781 136.556L138.795 136.553L138.783 136.577C138.984 138.349 138.722 140.081 138.085 141.642Z" fill="#FF0000"/>
<path id="Union_5" d="M103.89 189.58L103.994 189.558L90.1903 215.523L69.1007 198.126C67.0218 196.781 65.424 194.694 64.7323 192.155L64.7129 192.137L64.7268 192.135C64.6591 191.884 64.6002 191.629 64.5505 191.37C63.474 185.754 67.1379 180.333 72.7339 179.26C77.4724 178.351 82.0769 180.853 84.0304 185.05C84.2932 180.428 87.6463 176.401 92.3848 175.493C97.9808 174.42 103.39 178.102 104.466 183.718C104.516 183.977 104.556 184.236 104.585 184.494L104.599 184.491L104.588 184.515C104.789 186.287 104.526 188.019 103.89 189.58Z" fill="#FF0000"/>
<path id="Union_6" d="M81.5114 270.977L81.4071 270.999L95.2111 245.035L116.301 262.431C118.38 263.776 119.977 265.863 120.669 268.402L120.689 268.42L120.675 268.423C120.742 268.673 120.801 268.928 120.851 269.187C121.927 274.803 118.264 280.225 112.668 281.297C107.929 282.206 103.325 279.705 101.371 275.507C101.108 280.129 97.7552 284.156 93.0167 285.064C87.4207 286.137 82.0115 282.455 80.9351 276.839C80.8854 276.58 80.8458 276.321 80.816 276.064L80.8022 276.066L80.8136 276.042C80.6129 274.27 80.8753 272.538 81.5114 270.977Z" fill="#FF0000"/>
<path id="Union_7" d="M165.206 254.933L165.102 254.955L178.906 228.99L199.995 246.387C202.074 247.732 203.672 249.819 204.364 252.358L204.383 252.376L204.369 252.378C204.437 252.629 204.496 252.884 204.546 253.143C205.622 258.759 201.958 264.18 196.362 265.253C191.624 266.162 187.019 263.66 185.066 259.463C184.803 264.085 181.45 268.112 176.711 269.02C171.115 270.093 165.706 266.411 164.63 260.795C164.58 260.536 164.54 260.277 164.511 260.019L164.497 260.022L164.508 259.998C164.308 258.226 164.57 256.494 165.206 254.933Z" fill="#FF0000"/>
<path id="Union_8" d="M187.585 173.535L187.689 173.514L173.885 199.478L152.795 182.081C150.716 180.737 149.119 178.65 148.427 176.11L148.408 176.093L148.421 176.09C148.354 175.839 148.295 175.584 148.245 175.325C147.169 169.71 150.832 164.288 156.428 163.215C161.167 162.307 165.772 164.808 167.725 169.005C167.988 164.383 171.341 160.357 176.079 159.448C181.675 158.375 187.085 162.058 188.161 167.673C188.211 167.933 188.25 168.191 188.28 168.449L188.294 168.447L188.282 168.471C188.483 170.242 188.221 171.975 187.585 173.535Z" fill="#FF0000"/>
<path id="Union_9" d="M216.82 275.437L216.779 275.446L222.128 265.425L230.287 272.131C231.091 272.65 231.709 273.454 231.976 274.434L231.984 274.441L231.978 274.442C232.004 274.539 232.027 274.637 232.046 274.737C232.462 276.903 231.042 278.996 228.876 279.411C227.042 279.763 225.26 278.799 224.505 277.18C224.402 278.963 223.103 280.518 221.269 280.869C219.103 281.285 217.01 279.865 216.595 277.699C216.576 277.599 216.561 277.499 216.549 277.4L216.544 277.401L216.548 277.391C216.471 276.708 216.573 276.039 216.82 275.437Z" fill="#FF0000"/>
</g>
<g id="7-club">
<g id="card">
<g id="Rectangle 22" filter="url(#filter1_d_66_165)">
<rect x="208.113" y="8" width="179.574" height="287.448" rx="10" transform="rotate(15.7682 208.113 8)" fill="white"/>
</g>
<path id="7_3" d="M224.888 25.3157L224.518 26.6245L215.636 37.2508L213.596 36.6747L222.259 26.3815L216.1 24.6424L215.421 27.0483L213.573 26.5265L214.725 22.4461L224.888 25.3157Z" fill="black"/>
<path id="7_4" d="M286.393 314.871L286.762 313.562L295.644 302.935L297.684 303.512L289.021 313.805L295.18 315.544L295.86 313.138L297.707 313.66L296.555 317.74L286.393 314.871Z" fill="black"/>
</g>
<g id="clubs">
<path id="Vector" fill-rule="evenodd" clip-rule="evenodd" d="M227.764 67.1176C227.96 67.17 228.155 67.2223 228.342 67.292C228.123 65.7469 228.291 64.1734 228.833 62.7119C229.376 61.2505 230.274 59.9465 231.449 58.9164C232.625 57.8863 234.039 57.1621 235.568 56.8084C237.097 56.4546 238.691 56.4824 240.209 56.8893C241.728 57.2961 243.123 58.0693 244.269 59.1399C245.416 60.2105 246.28 61.5451 246.782 63.0248C247.285 64.5045 247.411 66.0831 247.15 67.6198C246.889 69.1565 246.248 70.6036 245.285 71.8318C245.471 71.8817 245.659 71.9126 245.848 71.9633C247.411 72.3813 248.843 73.1872 250.008 74.3051C251.173 75.423 252.033 76.8159 252.507 78.3525C252.981 79.889 253.054 81.5185 252.718 83.0872C252.382 84.6558 251.648 86.112 250.587 87.3182C249.525 88.5243 248.17 89.4408 246.65 89.9811C245.13 90.5213 243.494 90.6676 241.898 90.406C240.301 90.1445 238.797 89.4837 237.526 88.4861C236.255 87.4886 235.26 86.187 234.634 84.7044C235.456 88.1678 236.627 91.8029 239.494 94.3126L238.935 96.3975L221.541 91.7367L222.098 89.6548C224.893 89.4306 227.699 87.0625 230.354 84.284C229.015 85.1057 227.49 85.5834 225.916 85.674C224.342 85.7647 222.768 85.4655 221.336 84.8034C219.904 84.1413 218.659 83.137 217.713 81.8808C216.766 80.6246 216.148 79.1559 215.914 77.6067C215.679 76.0575 215.836 74.4764 216.37 73.0056C216.904 71.5347 217.799 70.2203 218.973 69.1803C220.148 68.1404 221.565 67.4075 223.099 67.0477C224.632 66.6879 226.233 66.7124 227.757 67.119L227.764 67.1176Z" fill="black"/>
<path id="Vector_2" fill-rule="evenodd" clip-rule="evenodd" d="M323.764 99.1176C323.96 99.17 324.155 99.2223 324.342 99.292C324.123 97.7469 324.291 96.1734 324.833 94.7119C325.376 93.2505 326.274 91.9465 327.449 90.9164C328.625 89.8863 330.039 89.1621 331.568 88.8084C333.097 88.4546 334.691 88.4824 336.209 88.8893C337.728 89.2961 339.123 90.0693 340.269 91.1399C341.416 92.2105 342.28 93.5451 342.782 95.0248C343.285 96.5045 343.411 98.0831 343.15 99.6198C342.889 101.157 342.248 102.604 341.285 103.832C341.471 103.882 341.659 103.913 341.848 103.963C343.411 104.381 344.843 105.187 346.008 106.305C347.173 107.423 348.033 108.816 348.507 110.352C348.981 111.889 349.054 113.518 348.718 115.087C348.382 116.656 347.648 118.112 346.587 119.318C345.525 120.524 344.17 121.441 342.65 121.981C341.13 122.521 339.494 122.668 337.898 122.406C336.301 122.144 334.797 121.484 333.526 120.486C332.255 119.489 331.26 118.187 330.634 116.704C331.456 120.168 332.627 123.803 335.494 126.313L334.935 128.398L317.541 123.737L318.098 121.655C320.893 121.431 323.699 119.062 326.354 116.284C325.015 117.106 323.49 117.583 321.916 117.674C320.342 117.765 318.768 117.466 317.336 116.803C315.904 116.141 314.659 115.137 313.713 113.881C312.766 112.625 312.148 111.156 311.914 109.607C311.679 108.057 311.836 106.476 312.37 105.006C312.904 103.535 313.799 102.22 314.973 101.18C316.148 100.14 317.565 99.4075 319.099 99.0477C320.632 98.6879 322.233 98.7124 323.757 99.119L323.764 99.1176Z" fill="black"/>
<path id="Vector_3" fill-rule="evenodd" clip-rule="evenodd" d="M209.098 43.8481C209.174 43.8684 209.249 43.8886 209.322 43.9156C209.237 43.3179 209.302 42.7092 209.512 42.1438C209.722 41.5785 210.069 41.0741 210.524 40.6756C210.978 40.2771 211.526 39.9969 212.117 39.8601C212.708 39.7232 213.325 39.734 213.913 39.8914C214.5 40.0488 215.04 40.3479 215.483 40.762C215.927 41.1762 216.261 41.6925 216.455 42.2649C216.65 42.8373 216.699 43.4479 216.597 44.0424C216.496 44.6369 216.249 45.1966 215.876 45.6718C215.948 45.6911 216.021 45.703 216.094 45.7226C216.699 45.8843 217.252 46.1961 217.703 46.6286C218.154 47.061 218.487 47.5998 218.67 48.1942C218.853 48.7886 218.881 49.419 218.751 50.0258C218.621 50.6327 218.338 51.196 217.927 51.6626C217.516 52.1292 216.992 52.4837 216.404 52.6927C215.816 52.9017 215.183 52.9583 214.566 52.8571C213.948 52.7559 213.366 52.5003 212.874 52.1144C212.383 51.7285 211.998 51.225 211.756 50.6514C212.074 51.9912 212.527 53.3974 213.636 54.3683L213.42 55.1748L206.691 53.3718L206.907 52.5665C207.988 52.4797 209.073 51.5637 210.1 50.4888C209.582 50.8067 208.992 50.9915 208.383 51.0265C207.774 51.0616 207.166 50.9459 206.612 50.6897C206.058 50.4336 205.576 50.0451 205.21 49.5591C204.844 49.0732 204.605 48.505 204.514 47.9057C204.423 47.3065 204.484 46.6948 204.691 46.1258C204.897 45.5569 205.243 45.0484 205.698 44.6461C206.152 44.2438 206.7 43.9603 207.293 43.8211C207.887 43.6819 208.506 43.6914 209.096 43.8487L209.098 43.8481Z" fill="black"/>
<path id="Vector_4" fill-rule="evenodd" clip-rule="evenodd" d="M297.098 289.848C297.174 289.868 297.249 289.889 297.322 289.916C297.237 289.318 297.302 288.709 297.512 288.144C297.722 287.578 298.069 287.074 298.524 286.676C298.978 286.277 299.526 285.997 300.117 285.86C300.708 285.723 301.325 285.734 301.913 285.891C302.5 286.049 303.04 286.348 303.483 286.762C303.927 287.176 304.261 287.692 304.455 288.265C304.65 288.837 304.699 289.448 304.597 290.042C304.496 290.637 304.249 291.197 303.876 291.672C303.948 291.691 304.021 291.703 304.094 291.723C304.699 291.884 305.252 292.196 305.703 292.629C306.154 293.061 306.487 293.6 306.67 294.194C306.853 294.789 306.881 295.419 306.751 296.026C306.621 296.633 306.338 297.196 305.927 297.663C305.516 298.129 304.992 298.484 304.404 298.693C303.816 298.902 303.183 298.958 302.566 298.857C301.948 298.756 301.366 298.5 300.874 298.114C300.383 297.728 299.998 297.225 299.756 296.651C300.074 297.991 300.527 299.397 301.636 300.368L301.42 301.175L294.691 299.372L294.907 298.566C295.988 298.48 297.073 297.564 298.1 296.489C297.582 296.807 296.992 296.991 296.383 297.027C295.774 297.062 295.166 296.946 294.612 296.69C294.058 296.434 293.576 296.045 293.21 295.559C292.844 295.073 292.605 294.505 292.514 293.906C292.423 293.306 292.484 292.695 292.691 292.126C292.897 291.557 293.243 291.048 293.698 290.646C294.152 290.244 294.7 289.96 295.293 289.821C295.887 289.682 296.506 289.691 297.096 289.849L297.098 289.848Z" fill="black"/>
<path id="Vector_5" fill-rule="evenodd" clip-rule="evenodd" d="M187.764 217.117C187.96 217.17 188.155 217.222 188.342 217.292C188.123 215.747 188.291 214.173 188.833 212.712C189.376 211.25 190.274 209.946 191.449 208.916C192.625 207.886 194.039 207.162 195.568 206.808C197.097 206.454 198.691 206.482 200.209 206.889C201.728 207.296 203.123 208.069 204.269 209.14C205.416 210.21 206.28 211.545 206.782 213.025C207.285 214.504 207.411 216.083 207.15 217.62C206.889 219.156 206.248 220.603 205.285 221.832C205.471 221.881 205.659 221.912 205.848 221.963C207.411 222.381 208.843 223.187 210.008 224.305C211.173 225.423 212.033 226.816 212.507 228.352C212.981 229.889 213.054 231.518 212.718 233.087C212.382 234.656 211.648 236.112 210.587 237.318C209.525 238.524 208.17 239.441 206.65 239.981C205.13 240.521 203.494 240.667 201.898 240.406C200.301 240.144 198.797 239.483 197.526 238.486C196.255 237.488 195.26 236.187 194.634 234.704C195.456 238.168 196.627 241.803 199.494 244.312L198.935 246.397L181.541 241.736L182.098 239.655C184.893 239.43 187.699 237.062 190.354 234.284C189.015 235.105 187.49 235.583 185.916 235.674C184.342 235.764 182.768 235.465 181.336 234.803C179.904 234.141 178.659 233.137 177.713 231.881C176.766 230.624 176.148 229.156 175.914 227.606C175.679 226.057 175.836 224.476 176.37 223.005C176.904 221.535 177.799 220.22 178.973 219.18C180.148 218.14 181.565 217.407 183.099 217.048C184.632 216.688 186.233 216.712 187.757 217.119L187.764 217.117Z" fill="black"/>
<path id="Vector_6" fill-rule="evenodd" clip-rule="evenodd" d="M277.764 247.117C277.96 247.17 278.155 247.222 278.342 247.292C278.123 245.747 278.291 244.173 278.833 242.712C279.376 241.25 280.274 239.946 281.449 238.916C282.625 237.886 284.039 237.162 285.568 236.808C287.097 236.454 288.691 236.482 290.209 236.889C291.728 237.296 293.123 238.069 294.269 239.14C295.416 240.21 296.28 241.545 296.782 243.025C297.285 244.504 297.411 246.083 297.15 247.62C296.889 249.156 296.248 250.603 295.285 251.832C295.471 251.881 295.659 251.912 295.848 251.963C297.411 252.381 298.843 253.187 300.008 254.305C301.173 255.423 302.033 256.816 302.507 258.352C302.981 259.889 303.054 261.518 302.718 263.087C302.382 264.656 301.648 266.112 300.587 267.318C299.525 268.524 298.17 269.441 296.65 269.981C295.13 270.521 293.494 270.667 291.898 270.406C290.301 270.144 288.797 269.483 287.526 268.486C286.255 267.488 285.26 266.187 284.634 264.704C285.456 268.168 286.627 271.803 289.494 274.312L288.935 276.397L271.541 271.736L272.098 269.655C274.893 269.43 277.699 267.062 280.354 264.284C279.015 265.105 277.49 265.583 275.916 265.674C274.342 265.764 272.768 265.465 271.336 264.803C269.904 264.141 268.659 263.137 267.713 261.881C266.766 260.624 266.148 259.156 265.914 257.606C265.679 256.057 265.836 254.476 266.37 253.005C266.904 251.535 267.799 250.22 268.973 249.18C270.148 248.14 271.565 247.407 273.099 247.048C274.632 246.688 276.233 246.712 277.757 247.119L277.764 247.117Z" fill="black"/>
<path id="Vector_7" fill-rule="evenodd" clip-rule="evenodd" d="M250.764 144.118C250.96 144.17 251.155 144.222 251.342 144.292C251.123 142.747 251.291 141.173 251.833 139.712C252.376 138.25 253.274 136.947 254.449 135.916C255.625 134.886 257.039 134.162 258.568 133.808C260.097 133.455 261.691 133.482 263.209 133.889C264.728 134.296 266.123 135.069 267.269 136.14C268.416 137.21 269.28 138.545 269.782 140.025C270.285 141.504 270.411 143.083 270.15 144.62C269.889 146.157 269.248 147.604 268.285 148.832C268.471 148.882 268.659 148.913 268.848 148.963C270.411 149.381 271.843 150.187 273.008 151.305C274.173 152.423 275.033 153.816 275.507 155.352C275.981 156.889 276.054 158.518 275.718 160.087C275.382 161.656 274.648 163.112 273.587 164.318C272.525 165.524 271.17 166.441 269.65 166.981C268.13 167.521 266.494 167.668 264.898 167.406C263.301 167.144 261.797 166.484 260.526 165.486C259.255 164.489 258.26 163.187 257.634 161.704C258.456 165.168 259.627 168.803 262.494 171.313L261.935 173.398L244.541 168.737L245.098 166.655C247.893 166.431 250.699 164.062 253.354 161.284C252.015 162.106 250.49 162.583 248.916 162.674C247.342 162.765 245.768 162.466 244.336 161.803C242.904 161.141 241.659 160.137 240.713 158.881C239.766 157.625 239.148 156.156 238.914 154.607C238.679 153.057 238.836 151.476 239.37 150.006C239.904 148.535 240.799 147.22 241.973 146.18C243.148 145.14 244.565 144.408 246.099 144.048C247.632 143.688 249.233 143.712 250.757 144.119L250.764 144.118Z" fill="black"/>
</g>
</g>
</g>
<defs>
<filter id="filter0_d_66_165" x="0.702026" y="8.7019" width="250.495" height="337.399" filterUnits="userSpaceOnUse" color-interpolation-filters="sRGB">
<feFlood flood-opacity="0" result="BackgroundImageFix"/>
<feColorMatrix in="SourceAlpha" type="matrix" values="0 0 0 0 0 0 0 0 0 0 0 0 0 0 0 0 0 0 127 0" result="hardAlpha"/>
<feOffset/>
<feGaussianBlur stdDeviation="5"/>
<feComposite in2="hardAlpha" operator="out"/>
<feColorMatrix type="matrix" values="0 0 0 0 0 0 0 0 0 0 0 0 0 0 0 0 0 0 0.25 0"/>
<feBlend mode="normal" in2="BackgroundImageFix" result="effect1_dropShadow_66_165"/>
<feBlend mode="normal" in="SourceGraphic" in2="effect1_dropShadow_66_165" result="shape"/>
</filter>
<filter id="filter1_d_66_165" x="122.339" y="0.338623" width="266.252" height="340.752" filterUnits="userSpaceOnUse" color-interpolation-filters="sRGB">
<feFlood flood-opacity="0" result="BackgroundImageFix"/>
<feColorMatrix in="SourceAlpha" type="matrix" values="0 0 0 0 0 0 0 0 0 0 0 0 0 0 0 0 0 0 127 0" result="hardAlpha"/>
<feOffset/>
<feGaussianBlur stdDeviation="5"/>
<feComposite in2="hardAlpha" operator="out"/>
<feColorMatrix type="matrix" values="0 0 0 0 0 0 0 0 0 0 0 0 0 0 0 0 0 0 0.25 0"/>
<feBlend mode="normal" in2="BackgroundImageFix" result="effect1_dropShadow_66_165"/>
<feBlend mode="normal" in="SourceGraphic" in2="effect1_dropShadow_66_165" result="shape"/>
</filter>
</defs>
</svg>
