<svg width="16" height="19" viewBox="0 0 16 19" fill="none" xmlns="http://www.w3.org/2000/svg">
<path d="M8.50001 3V1H9.50001C9.63262 1 9.75982 0.947314 9.85359 0.853546C9.94735 0.759778 10 0.632608 10 0.5C10 0.367392 9.94735 0.240222 9.85359 0.146454C9.75982 0.0526857 9.63262 0 9.50001 0H6.50001C6.3674 0 6.24026 0.0526857 6.14649 0.146454C6.05273 0.240222 6.00001 0.367392 6.00001 0.5C6.00001 0.632608 6.05273 0.759778 6.14649 0.853546C6.24026 0.947314 6.3674 1 6.50001 1H7.50001V3C5.42565 3.1299 3.48326 4.06201 2.08412 5.59897C0.684976 7.13593 -0.0610673 9.15709 0.00391519 11.2345C0.0688976 13.3119 0.939857 15.2825 2.43232 16.729C3.92479 18.1755 5.92159 18.9843 8.00001 18.9843C10.0784 18.9843 12.0753 18.1755 13.5678 16.729C15.0602 15.2825 15.9311 13.3119 15.9961 11.2345C16.0611 9.15709 15.315 7.13593 13.9159 5.59897C12.5168 4.06201 10.5744 3.1299 8.50001 3ZM8.00001 18C6.61554 18 5.26218 17.5895 4.11103 16.8203C2.95989 16.0511 2.06266 14.9579 1.53285 13.6788C1.00303 12.3997 0.864434 10.9922 1.13453 9.63437C1.40463 8.2765 2.07127 7.02923 3.05024 6.05026C4.02921 5.07129 5.27654 4.40459 6.63441 4.13449C7.99228 3.86439 9.3997 4.00302 10.6788 4.53284C11.9579 5.06265 13.0512 5.95988 13.8203 7.11102C14.5895 8.26217 15 9.61553 15 11C15 12.8565 14.2625 14.637 12.9498 15.9497C11.637 17.2625 9.85652 18 8.00001 18Z" fill="white"/>
<path d="M10.7458 11.1566L8.24613 11.1979L8.23836 7.69573C8.23763 7.62996 8.22393 7.56494 8.19808 7.50445C8.17223 7.44397 8.1347 7.38915 8.08767 7.34316C8.04064 7.29717 7.98501 7.26092 7.92397 7.23643C7.86292 7.21194 7.79763 7.1997 7.73186 7.20044C7.66608 7.20117 7.60111 7.21485 7.54062 7.2407C7.48013 7.26655 7.42536 7.30407 7.37937 7.3511C7.33338 7.39813 7.29709 7.45377 7.2726 7.51482C7.24811 7.57587 7.23588 7.64112 7.23662 7.70689L7.25428 11.701C7.25294 11.7664 7.26477 11.8315 7.28899 11.8923C7.31322 11.9531 7.34936 12.0085 7.39533 12.0551C7.4413 12.1017 7.49611 12.1386 7.55658 12.1637C7.61706 12.1887 7.68199 12.2014 7.74745 12.201L10.757 12.1584C10.822 12.1585 10.8864 12.1457 10.9465 12.1206C11.0065 12.0956 11.061 12.0589 11.1067 12.0126C11.1524 11.9663 11.1885 11.9113 11.2127 11.851C11.237 11.7906 11.2489 11.726 11.2479 11.6609C11.2485 11.5947 11.2359 11.5291 11.2109 11.4678C11.1859 11.4065 11.1489 11.3507 11.1022 11.3038C11.0555 11.2569 11 11.2197 10.9388 11.1945C10.8776 11.1692 10.812 11.1564 10.7458 11.1566Z" fill="white"/>
</svg>
